<?xml version="1.0" encoding="utf-8"?>
<!-- Generator: Adobe Illustrator 27.5.0, SVG Export Plug-In . SVG Version: 6.00 Build 0)  -->
<svg version="1.1" xmlns="http://www.w3.org/2000/svg" xmlns:xlink="http://www.w3.org/1999/xlink" x="0px" y="0px"
	 viewBox="2490.805 -1791.686 4554.651 3588.58" style="enable-background:new 2490.805 -1791.686 4554.651 3588.58;"
	 xml:space="preserve">
<g id="Layer_1">
</g>
<g id="Layer_2">
</g>
<g id="Dimensions">
	<rect x="2490.805" y="-1791.686" width="4554.651" height="3588.58"/>
	<g>
		<path style="fill-rule:evenodd;clip-rule:evenodd;fill:#FF0072;" d="M5450.37,196.246
			c-94.218,117.697-532.896,270.872-682.304,305.071c-234.742,53.706-793.628,150.121-979.275,47.803
			c-104.153-57.388-61.975-145.594,14.111-238.75v0.024c-79.563,125.266-81.12,196.789,58.644,213.279
			c233.498,27.547,1025.75-214.969,1329.505-357.545c-164.088,1.678-407.485,38.375-511.517,48.286
			c-136.951,13.061-314.305-16.9-298.975-186.275c11.915-131.652,133.789-231.736,236.916-306.012
			c124.034-89.317,190.512-149.469,216.115-183.257c0.024-0.024,0.037-0.036,0.061-0.061
			c150.314-165.56,70.545-229.757-54.02-193.989c-6.929,3.392-13.738,6.941-20.377,10.599
			c99.36-54.877,235.998-82.75,290.597,11.721c82.328,142.468-140.669,339.619-253.863,429.672
			c-103.018,81.953-396.742,259.38-96.017,230.674c181-17.286,542.541-79.624,699.772-31.748
			C5487.006,22.32,5524.597,103.513,5450.37,196.246z"/>
		<path style="fill-rule:evenodd;clip-rule:evenodd;fill:#5DF2FF;" d="M4833.589-461.131c0.266-0.35,0.531-0.712,0.797-1.062
			c-0.229,0.326-0.482,0.664-0.736,1.002C4833.625-461.167,4833.613-461.155,4833.589-461.131z"/>
		<path style="fill-rule:evenodd;clip-rule:evenodd;fill:#5DF2FF;" d="M4836.052-464.463c1.388-1.956,2.632-3.802,3.73-5.553
			C4838.695-468.265,4837.452-466.406,4836.052-464.463z"/>
		<path style="fill-rule:evenodd;clip-rule:evenodd;fill:#5DF2FF;" d="M4842.365-474.458c0.556-1.062,1.051-2.076,1.498-3.054
			C4843.439-476.534,4842.933-475.52,4842.365-474.458z"/>
		<path style="fill-rule:evenodd;clip-rule:evenodd;fill:#5DF2FF;" d="M4844.792-479.757c0.422-1.147,0.748-2.221,0.99-3.235
			C4845.552-481.978,4845.226-480.904,4844.792-479.757z"/>
		<path style="fill-rule:evenodd;clip-rule:evenodd;fill:#5DF2FF;" d="M4845.914-483.608c0.567-2.958,0.29-5.287-0.796-7.026
			C4846.216-488.895,4846.493-486.566,4845.914-483.608z"/>
		<linearGradient id="SVGID_1_" gradientUnits="userSpaceOnUse" x1="5305.8052" y1="201.0281" x2="4719.5581" y2="421.8932">
			<stop  offset="0.126" style="stop-color:#000000"/>
			<stop  offset="0.1379" style="stop-color:#050505"/>
			<stop  offset="0.339" style="stop-color:#5D5D5D"/>
			<stop  offset="0.5161" style="stop-color:#A2A2A2"/>
			<stop  offset="0.6627" style="stop-color:#D4D4D4"/>
			<stop  offset="0.7733" style="stop-color:#F3F3F3"/>
			<stop  offset="0.835" style="stop-color:#FFFFFF"/>
		</linearGradient>
		<path style="fill-rule:evenodd;clip-rule:evenodd;fill:url(#SVGID_1_);" d="M4686.865,352.84l37.884,138.664
			c442.212-134.714,785.175-308.801,464.391-324.476C5072.851,221.404,4886.222,290.12,4686.865,352.84L4686.865,352.84z"/>
		
			<linearGradient id="SVGID_00000177481876008052977570000000049313332504737676_" gradientUnits="userSpaceOnUse" x1="4507.5947" y1="-1.1232" x2="4755.7275" y2="-262.8896">
			<stop  offset="0.126" style="stop-color:#000000"/>
			<stop  offset="0.1379" style="stop-color:#050505"/>
			<stop  offset="0.339" style="stop-color:#5D5D5D"/>
			<stop  offset="0.5161" style="stop-color:#A2A2A2"/>
			<stop  offset="0.6627" style="stop-color:#D4D4D4"/>
			<stop  offset="0.7733" style="stop-color:#F3F3F3"/>
			<stop  offset="0.835" style="stop-color:#FFFFFF"/>
		</linearGradient>
		<path style="fill-rule:evenodd;clip-rule:evenodd;fill:url(#SVGID_00000177481876008052977570000000049313332504737676_);" d="
			M4681.106-273.613c-171.264,120.559-214.143,254.219-94.824,296.724c-80.121-32.218,126.701-160.242,209.717-226.291
			c7.796-6.204,16.119-12.914,24.825-20.079l-101.473-77.753c-12.304,8.975-25.042,18.104-38.235,27.4L4681.106-273.613z"/>
	</g>
</g>
<g id="Layer_4">
</g>
</svg>
